<svg xmlns="http://www.w3.org/2000/svg" viewBox="0 0 200 50" width="200" height="50">
  <!-- Book Icon -->
  <g transform="translate(4, 8)">
    <!-- Left page -->
    <path d="M2 6 C2 4, 4 2, 8 2 L16 2 L16 30 L8 30 C4 30, 2 28, 2 26 Z"
          fill="#ffffff" opacity="0.95"/>
    <!-- Right page -->
    <path d="M32 6 C32 4, 30 2, 26 2 L18 2 L18 30 L26 30 C30 30, 32 28, 32 26 Z"
          fill="#ffffff" opacity="0.8"/>
    <!-- Spine -->
    <rect x="15" y="2" width="4" height="28" fill="#ffffff"/>
    <!-- Page lines left -->
    <line x1="5" y1="9" x2="13" y2="9" stroke="#6366f1" stroke-width="1.5" stroke-linecap="round" opacity="0.5"/>
    <line x1="5" y1="14" x2="13" y2="14" stroke="#6366f1" stroke-width="1.5" stroke-linecap="round" opacity="0.5"/>
    <line x1="5" y1="19" x2="11" y2="19" stroke="#6366f1" stroke-width="1.5" stroke-linecap="round" opacity="0.5"/>
    <!-- Page lines right -->
    <line x1="21" y1="9" x2="29" y2="9" stroke="#6366f1" stroke-width="1.5" stroke-linecap="round" opacity="0.5"/>
    <line x1="21" y1="14" x2="29" y2="14" stroke="#6366f1" stroke-width="1.5" stroke-linecap="round" opacity="0.5"/>
    <line x1="21" y1="19" x2="27" y2="19" stroke="#6366f1" stroke-width="1.5" stroke-linecap="round" opacity="0.5"/>
  </g>

  <!-- Text: Solobooks -->
  <text x="48" y="34" font-family="system-ui, -apple-system, sans-serif" font-size="22" font-weight="600" fill="#ffffff">
    Solobooks
  </text>
</svg>
